<?xml version="1.0" encoding="UTF-8" standalone="no"?>
<!-- Created with Inkscape (http://www.inkscape.org/) -->

<svg
   xmlns:dc="http://purl.org/dc/elements/1.1/"
   xmlns:cc="http://creativecommons.org/ns#"
   xmlns:rdf="http://www.w3.org/1999/02/22-rdf-syntax-ns#"
   xmlns:svg="http://www.w3.org/2000/svg"
   xmlns="http://www.w3.org/2000/svg"
   xmlns:sodipodi="http://sodipodi.sourceforge.net/DTD/sodipodi-0.dtd"
   xmlns:inkscape="http://www.inkscape.org/namespaces/inkscape"
   width="900"
   height="900"
   id="svg3489"
   version="1.1"
   inkscape:version="0.47 r22583"
   sodipodi:docname="ejisto2.svg"
   inkscape:export-filename="/home/celestino/Documenti/ejisto/definitivo/ejisto_bg.png"
   inkscape:export-xdpi="90"
   inkscape:export-ydpi="90">
  <defs
     id="defs3491">
    <inkscape:perspective
       sodipodi:type="inkscape:persp3d"
       inkscape:vp_x="0 : 526.18109 : 1"
       inkscape:vp_y="0 : 1000 : 0"
       inkscape:vp_z="744.09448 : 526.18109 : 1"
       inkscape:persp3d-origin="372.04724 : 350.78739 : 1"
       id="perspective3497" />
    <filter
       id="filter4273"
       inkscape:menu-tooltip="Draws a black outline around"
       inkscape:menu="ABCs"
       inkscape:label="Black outline"
       color-interpolation-filters="sRGB">
      <feGaussianBlur
         id="feGaussianBlur4275"
         stdDeviation="2"
         in="SourceAlpha"
         result="result0" />
      <feComposite
         id="feComposite4277"
         in2="result0"
         result="result3"
         operator="arithmetic"
         in="SourceGraphic"
         k2="1"
         k3="10"
         k1="0"
         k4="0" />
      <feComposite
         id="feComposite4279"
         in2="result3"
         operator="in"
         in="result3"
         result="result4" />
    </filter>
    <inkscape:perspective
       id="perspective4394"
       inkscape:persp3d-origin="0.5 : 0.33333333 : 1"
       inkscape:vp_z="1 : 0.5 : 1"
       inkscape:vp_y="0 : 1000 : 0"
       inkscape:vp_x="0 : 0.5 : 1"
       sodipodi:type="inkscape:persp3d" />
    <filter
       inkscape:collect="always"
       id="filter3680"
       color-interpolation-filters="sRGB">
      <feGaussianBlur
         inkscape:collect="always"
         stdDeviation="12.741946"
         id="feGaussianBlur3682" />
    </filter>
    <inkscape:perspective
       id="perspective3853"
       inkscape:persp3d-origin="190 : 73.333333 : 1"
       inkscape:vp_z="380 : 110 : 1"
       inkscape:vp_y="0 : 1000 : 0"
       inkscape:vp_x="0 : 110 : 1"
       sodipodi:type="inkscape:persp3d" />
    <inkscape:perspective
       id="perspective2962"
       inkscape:persp3d-origin="0.5 : 0.33333333 : 1"
       inkscape:vp_z="1 : 0.5 : 1"
       inkscape:vp_y="0 : 1000 : 0"
       inkscape:vp_x="0 : 0.5 : 1"
       sodipodi:type="inkscape:persp3d" />
    <filter
       id="filter2978"
       inkscape:menu-tooltip="Draws a black outline around"
       inkscape:menu="ABCs"
       inkscape:label="Black outline"
       color-interpolation-filters="sRGB">
      <feGaussianBlur
         id="feGaussianBlur2980"
         stdDeviation="2"
         in="SourceAlpha"
         result="result0" />
      <feComposite
         id="feComposite2982"
         in2="result0"
         result="result3"
         operator="arithmetic"
         in="SourceGraphic"
         k2="1"
         k3="10" />
      <feComposite
         id="feComposite2984"
         in2="result3"
         k2="1"
         operator="in"
         in="result3"
         result="result4" />
    </filter>
  </defs>
  <sodipodi:namedview
     id="base"
     pagecolor="#ffffff"
     bordercolor="#666666"
     borderopacity="1.0"
     inkscape:pageopacity="0.0"
     inkscape:pageshadow="2"
     inkscape:zoom="0.6663515"
     inkscape:cx="429.47537"
     inkscape:cy="462.28424"
     inkscape:document-units="px"
     inkscape:current-layer="layer4"
     showgrid="false"
     inkscape:window-width="1440"
     inkscape:window-height="852"
     inkscape:window-x="-4"
     inkscape:window-y="-3"
     inkscape:window-maximized="1" />
  <metadata
     id="metadata3494">
    <rdf:RDF>
      <cc:Work
         rdf:about="">
        <dc:format>image/svg+xml</dc:format>
        <dc:type
           rdf:resource="http://purl.org/dc/dcmitype/StillImage" />
        <dc:title></dc:title>
      </cc:Work>
    </rdf:RDF>
  </metadata>
  <g
     inkscape:label="Layer 1"
     inkscape:groupmode="layer"
     id="layer1"
     transform="translate(0,-152.36215)"
     style="display:inline">
    <path
       transform="matrix(1.0546723,0,0,1.0473088,184.1013,72.25128)"
       d="m 619.99998,415.71429 c 0,166.4744 -93.3806,301.42856 -208.57142,301.42856 -115.19082,0 -208.57143,-134.95416 -208.57143,-301.42856 0,-166.47439 93.38061,-301.42855 208.57143,-301.42855 115.19082,0 208.57142,134.95416 208.57142,301.42855 z"
       sodipodi:ry="301.42856"
       sodipodi:rx="208.57143"
       sodipodi:cy="415.71429"
       sodipodi:cx="411.42856"
       id="path2906"
       style="fill:#a05a2c;fill-rule:evenodd;stroke:#000000;stroke-width:1px;stroke-linecap:butt;stroke-linejoin:miter;stroke-opacity:1;filter:url(#filter3680)"
       sodipodi:type="arc" />
    <path
       sodipodi:type="arc"
       style="fill:#a05a2c;fill-rule:evenodd;stroke:#000000;stroke-width:1px;stroke-linecap:butt;stroke-linejoin:miter;stroke-opacity:1;filter:url(#filter4273)"
       id="path3499"
       sodipodi:cx="411.42856"
       sodipodi:cy="415.71429"
       sodipodi:rx="208.57143"
       sodipodi:ry="301.42856"
       d="m 619.99998,415.71429 c 0,166.4744 -93.3806,301.42856 -208.57142,301.42856 -115.19082,0 -208.57143,-134.95416 -208.57143,-301.42856 0,-166.47439 93.38061,-301.42855 208.57143,-301.42855 115.19082,0 208.57142,134.95416 208.57142,301.42855 z"
       transform="matrix(1.0546723,0,0,1.0473088,164.1013,52.251283)" />
  </g>
  <g
     inkscape:groupmode="layer"
     id="layer2"
     inkscape:label="linea"
     transform="translate(0,100)"
     style="display:inline">
    <path
       style="fill:#000000"
       id="path4381"
       d="m 636.37089,-27.258727 c -4.48816,3.54479 -8.75446,7.41712 -12.7567,11.50585 -4.65652,3.632 -6.75616,8.78046 -9.46358,13.79094 -3.16042,4.51492 -4.46094,9.79945 -6.04788,14.98012 -1.14592,6.02127 -3.26718,11.67885 -5.38439,17.40224 -2.14366,7.45755 -2.99046,15.22863 -4.21593,22.8809 -1.04133,6.30645 -1.43207,12.68497 -1.62967,19.064967 -0.12706,5.71187 -0.10353,11.42569 -0.0956,17.13857 0.0334,6.56676 -0.0672,13.13293 -0.0791,19.69961 -0.0957,7.25164 1.21852,14.42704 2.0057,21.61731 0.61662,5.67844 2.76962,10.94625 4.96239,16.1646 1.79055,5.19696 4.81036,9.78542 7.18201,14.69991 3.17605,4.83997 6.07121,9.86429 8.97259,14.88318 4.01392,6.35159 6.94382,13.28711 10.42388,19.92194 3.97424,6.03428 7.35079,12.25901 10.10463,18.92468 2.37633,6.23146 4.10215,12.70915 5.77458,19.16287 1.44684,5.79916 1.81966,11.76814 2.03504,17.71672 0.14254,5.72772 0.1099,11.45794 0.0983,17.18689 -0.0145,5.71201 -0.0216,11.42404 -0.0256,17.13607 0.23622,5.98299 -0.0203,11.84325 -1.39117,17.67766 -1.88824,6.67883 -3.56987,13.42939 -5.09923,20.20082 -1.89412,7.4002 -3.56025,14.84655 -5.83015,22.1442 -3.13914,7.85992 -6.11478,15.79818 -9.44703,23.57918 -3.48027,8.46735 -8.38032,16.20806 -12.31056,24.46604 -3.62501,7.90377 -5.77993,16.36521 -10.11151,23.92551 -5.11245,7.05292 -10.90215,13.52954 -16.89823,19.83017 -2.94129,3.03113 -5.8589,6.07731 -8.69715,9.20487 0,0 -38.55177,16.29121 -38.55177,16.29121 l 0,0 c 2.73898,-3.30251 5.65382,-6.4005 8.70255,-9.42289 2.91971,-3.05396 6.20461,-5.98764 8.97289,-9.1621 2.80699,-3.21886 4.95052,-7.07047 8.16387,-9.96502 5.31173,-6.91926 7.0199,-15.46003 10.4333,-23.38061 3.77071,-8.34815 8.66477,-16.0568 12.30937,-24.42405 3.60197,-7.52705 5.96389,-15.54131 9.53788,-23.09126 2.36689,-7.16168 4.03277,-14.46399 5.96399,-21.74304 1.37726,-6.85255 3.19477,-13.59331 4.8137,-20.39075 1.89008,-5.40721 2.15354,-10.91141 1.88521,-16.60806 0.003,-5.71393 0.008,-11.42787 0.0222,-17.14179 0.0133,-5.68895 0.0459,-11.37841 -0.0359,-17.067 -0.1329,-5.67407 -0.33818,-11.37822 -1.56605,-16.94223 -1.50621,-6.29152 -3.22477,-12.5672 -5.35343,-18.67097 -2.75264,-6.53039 -6.03626,-12.68691 -9.87469,-18.66231 -3.36835,-6.6169 -6.50041,-13.37104 -10.43381,-19.68506 -2.96501,-5.11825 -6.18749,-10.07875 -9.32167,-15.0822 -2.31646,-4.99335 -5.36052,-9.63651 -7.22449,-14.84852 -2.45634,-5.57518 -4.53642,-11.33594 -5.40461,-17.39275 -0.67161,-7.3466 -2.10355,-14.64063 -2.14032,-22.01877 -0.0175,-6.53123 -0.12607,-13.06167 -0.11941,-19.59299 -0.0101,-5.75406 -0.0366,-11.50876 0.0626,-17.26224 0.1671,-6.57992 0.50688,-13.16434 1.58715,-19.668147 1.28918,-7.81074 2.3623,-15.64229 3.82032,-23.40796 1.66093,-5.81682 4.69677,-11.12482 5.31944,-17.2459 1.55239,-5.41087 2.68132,-11.05414 5.58273,-15.94297 3.2396,-4.82012 4.31497,-11.0026 9.13772,-14.60819 3.83219,-4.31121 8.16829,-8.01096 12.20703,-12.08905 0,0 39.42866,-15.6802 39.42866,-15.6802 z" />
  </g>
  <g
     inkscape:groupmode="layer"
     id="layer3"
     inkscape:label="occhi"
     transform="translate(0,100)">
    <path
       sodipodi:type="arc"
       style="fill:#000000"
       id="path4384"
       sodipodi:cx="237.14285"
       sodipodi:cy="370"
       sodipodi:rx="31.428572"
       sodipodi:ry="30"
       d="m 268.57142,370 c 0,16.56854 -14.07105,30 -31.42857,30 -17.35752,0 -31.42857,-13.43146 -31.42857,-30 0,-16.56854 14.07105,-30 31.42857,-30 17.35752,0 31.42857,13.43146 31.42857,30 z"
       transform="translate(238.02361,-229.72963)" />
    <path
       sodipodi:type="arc"
       style="fill:#000000"
       id="path4384-5"
       sodipodi:cx="237.14285"
       sodipodi:cy="370"
       sodipodi:rx="31.428572"
       sodipodi:ry="30"
       d="m 268.57142,370 c 0,16.56854 -14.07105,30 -31.42857,30 -17.35752,0 -31.42857,-13.43146 -31.42857,-30 0,-16.56854 14.07105,-30 31.42857,-30 17.35752,0 31.42857,13.43146 31.42857,30 z"
       transform="translate(478.02361,-229.72963)" />
    <path
       style="fill:#000000"
       id="path4426"
       d="m 713.25153,43.63374 c 5.50934,1.779356 10.34918,4.897432 16.02201,6.131225 4.86157,0.599139 8.91477,3.725533 12.75442,6.576613 4.55731,2.709201 8.8176,5.752035 12.60617,9.473258 4.00072,3.445056 7.30626,7.577714 10.73008,11.575994 1.66449,1.92702 3.77933,3.19527 5.95491,4.44099 0,0 -20.70789,8.82377 -20.70789,8.82377 l 0,0 c -2.26561,-1.47409 -4.47481,-2.98186 -6.22956,-5.08017 -3.4075,-3.91333 -6.62985,-8.019 -10.61126,-11.38309 -3.84112,-3.517383 -8.11691,-6.405726 -12.52356,-9.165027 -3.86984,-2.63473 -7.6504,-5.256363 -12.43235,-5.815974 -5.59176,-1.658209 -10.60503,-4.758419 -16.2306,-6.370903 0,0 20.66763,-9.206686 20.66763,-9.206686 z" />
    <path
       style="fill:#000000"
       id="path2837"
       d="m 495.45709,408.13778 c 8.89545,3.24167 17.96022,5.81339 26.75818,9.34656 9.09726,3.95837 18.05464,8.19109 27.00337,12.47234 7.35489,3.746 15.43979,4.90762 23.55601,5.57417 7.20692,0.0765 13.95096,2.84341 20.93484,4.33627 8.65591,1.36204 17.7934,-0.47834 26.07849,-3.06792 10.97398,-3.10916 21.39758,-7.77803 31.72765,-12.54609 1.75967,-0.90263 3.52631,-1.7918 5.279,-2.70789 1.06491,-0.5566 9.36568,-4.98904 10.40049,-5.56722 1.65888,-0.92687 6.57875,-3.8073 4.92998,-2.86255 -14.64691,8.3927 -19.18457,11.22244 -9.54203,5.32795 8.83943,-6.19493 17.64598,-12.40653 26.6285,-18.40419 4.6953,-2.69608 8.62093,-6.295 12.41229,-10.09769 0,0 20.81359,-8.62116 20.81359,-8.62116 l 0,0 c -3.87599,3.86391 -7.51799,7.93967 -12.41895,10.58761 -9.05761,5.9218 -17.91455,12.06508 -26.62745,18.47623 -15.97969,9.98577 -32.42271,19.30338 -49.29316,27.70461 -10.42188,4.74035 -20.95776,9.30903 -32.0245,12.35174 -8.69805,2.27299 -17.91578,4.12759 -26.85576,2.25228 -6.87838,-1.59228 -13.60482,-4.06062 -20.74432,-4.12301 -8.28854,-0.86106 -16.48159,-2.34305 -23.94573,-6.26687 -8.90084,-4.24585 -17.76818,-8.54181 -26.85463,-12.38393 -8.82511,-3.42172 -17.87874,-6.06749 -26.86956,-9.00617 0,0 18.6537,-12.77507 18.6537,-12.77507 z" />
    <path
       style="fill:#000000"
       id="path4426-3"
       d="m 431.32447,77.81456 c 3.44658,-4.65187 7.94774,-8.241579 10.92961,-13.222721 2.12123,-4.415213 6.37892,-7.256864 10.30747,-9.98413 4.02344,-3.45264 8.26812,-6.517224 13.00488,-8.918045 4.54286,-2.690087 9.51513,-4.501718 14.39785,-6.468375 2.35788,-0.961439 4.23542,-2.560116 6.11105,-4.223566 0,0 1.74391,22.441807 1.74391,22.441807 l 0,0 c -2.12077,1.675779 -4.25545,3.287343 -6.80447,4.279559 -4.79702,1.97835 -9.71712,3.71978 -14.17711,6.417439 -4.5604,2.515742 -8.66362,5.644372 -12.68639,8.938252 -3.73321,2.82501 -7.42547,5.56961 -9.48381,9.92202 -3.35811,4.76869 -7.89777,8.52844 -11.22337,13.34377 0,0 -2.11962,-22.52601 -2.11962,-22.52601 z" />
  </g>
  <g
     inkscape:groupmode="layer"
     id="layer4"
     inkscape:label="mano"
     style="display:none">
    <g
       id="layer1-6"
       inkscape:label="Ebene 1"
       transform="matrix(-0.05722286,-0.99836143,0.99836143,-0.05722286,127.7672,671.53588)">
      <g
         transform="translate(-61.83612,-214.1298)"
         id="g3742">
        <path
           style="fill:#f9cc9a;fill-opacity:1;fill-rule:evenodd;stroke:none"
           d="m 88.388348,312.93052 c -3.676163,81.84485 59.676972,72.72137 109.601552,81.82236 10.02348,9.91392 23.07349,22.05383 42.34977,23.33181 21.1541,-3.98314 36.55189,-6.97107 63.21117,-15.75567 96.42524,14.18465 121.14253,-0.96559 114.43788,-43.31844 -6.24904,-14.71112 -57.52884,-42.01588 -88.67899,-9.20949 l -32.82996,0.50507 c -1.20706,-20.59382 -4.63485,-34.0768 -22.55459,-66.90444 -2.44952,-26.1937 -10.64098,-56.70081 -33.0038,-57.8494 -15.21957,-1.03601 -22.44617,9.57558 -31.02975,18.51462 -13.44227,0.31006 -26.47912,0.41983 -39.68093,-0.83695 -14.3103,4.88256 -22.26601,30.60717 -46.97209,30.80966 -12.83863,8.0761 -23.249851,25.86187 -34.850262,38.89087 z"
           id="path1968"
           sodipodi:nodetypes="ccccccccccccc" />
        <path
           style="opacity:0.64000005;fill:#b18e6c;fill-opacity:1;fill-rule:evenodd;stroke:none"
           d="m 95.34355,347.11066 c 10.94332,12.50986 21.88664,8.51029 32.82996,-1.76776 12.583,18.64746 28.60897,28.06776 44.69925,5.3033 28.73897,9.04112 46.07409,-2.17353 60.10407,-21.21321 24.55176,5.0017 40.33127,-5.03475 50.76017,-24.24366 18.21807,26.49207 10.31849,48.53858 -2.77792,69.70053 5.07883,12.98323 13.98491,15.84426 20.70813,18.68782 31.93922,-9.00047 68.2151,16.15252 117.17769,-27.27412 4.84787,28.60336 -14.58926,34.94547 -33.33503,41.92133 -31.24194,4.49122 -61.61781,0.32174 -91.92388,-4.54569 l -53.03301,15.65737 -54.54824,-28.78935 c -41.07675,-0.1577 -88.448637,-5.36884 -90.66119,-43.43656 z"
           id="path2855"
           sodipodi:nodetypes="ccccccccccccc" />
        <path
           style="fill:#000000"
           d="m 162.19732,396.49461 c -17.83534,-1.15996 -28.08656,-3.10312 -36.1411,-6.8507 -12.41943,-5.77844 -31.75581,-22.74906 -37.85726,-33.22552 -3.828439,-6.57357 -7.716279,-22.62637 -7.874179,-32.51218 -0.15292,-9.57473 0.9433,-11.84387 8.049369,-16.66191 8.400911,-5.69596 13.98392,-12.21567 18.70435,-21.84248 6.33513,-12.91983 10.33127,-15.8492 21.75152,-15.94494 9.21223,-0.0772 13.77042,-2.62801 20.17713,-11.29117 8.32387,-11.25554 15.97524,-17.27107 24.23437,-19.05312 10.87061,-1.4537 22.2061,7.34123 32.86341,3.6779 5.6551,-6.55382 9.77359,-12.27458 16.58109,-17.79642 14.23346,-7.21534 34.94003,-2.08866 43.24636,10.73892 3.68237,7.55468 6.45553,19.31643 7.69517,32.63748 1.26795,13.62511 3.2502,19.4614 10.76168,31.68533 8.2895,15.34057 13.19288,24.46854 13.38374,45.20136 l 27.26669,1.23248 c 17.08495,-17.79057 30.59093,-20.69424 54.01657,-14.49884 17.95371,6.10602 31.77057,4.78666 40.59364,23.44457 3.97677,9.55264 4.70165,16.87289 2.4409,24.6496 -3.82366,13.15294 -10.28508,21.76128 -19.82651,26.41422 -17.81179,8.68603 -56.13745,10.01273 -89.41538,3.09525 -13.86391,-4.12615 -26.66325,-1.8385 -39.40835,4.34775 -22.21764,8.91474 -27.11622,5.00476 -33.60972,12.61361 -32.51825,-20.72612 -38.49771,-26.92215 -77.63349,-30.06119 z m 111.52509,7.64938 c 12.64597,-6.76947 27.50688,-5.87319 40.96094,-2.46827 27.33777,5.29457 62.9809,8.62344 88.23043,-4.16849 7.54776,-5.18559 13.64245,-17.43973 13.64245,-27.42984 -0.64195,-23.7457 -18.43384,-24.33525 -36.5,-29.8765 -9.6074,-4.28746 -21.30144,-4.66176 -30.91221,-0.24218 -16.36552,8.48957 -23.95937,25.79412 -35.15014,39.36808 -1.28352,-8.28256 2.403,-15.94662 5.17502,-23.49165 l -24.23604,0.98196 c -11.77748,25.3777 -34.6218,27.20814 -58.13964,17.75312 -6.39529,8.62579 -18.33795,16.36934 -35.47908,16.26413 13.24319,4.6651 23.86409,15.62884 36.97527,20.40155 13.16536,2.92509 24.21956,-0.9891 35.433,-7.09191 z m -105.66409,-58.7676 c -2.46937,-9.21725 -3.35798,-18.14229 -1.61995,-16.27059 0.48518,0.5225 3.49031,6.8 6.67807,13.95 10.35144,33.82107 53.11176,52.0017 61.43979,9.93592 0.26507,-20.13631 -20.88711,-43.38845 -9.27647,-62.61399 -2.25263,11.8571 2.79595,22.18132 7.80916,32.67807 6.60419,13.29498 8.39758,20.00405 8.4475,31.60212 0.95951,15.68071 18.19929,15.31819 29.96072,12.30485 29.66786,-16.66302 14.81824,-48.34487 3.73953,-71.02464 -6.24345,-12.48295 -8.00252,-18.81399 -10.184,-36.65303 -1.33082,-20.58657 -10.06924,-28.99572 -31.59299,-29.44026 -13.64174,-0.50507 -15.87476,21.3249 -27.72426,21.71096 -9.49903,-0.45645 -18.71457,-3.24396 -28.1792,-3.97923 -8.67331,-0.0333 -15.35589,5.25574 -22.04923,17.45134 -5.2231,9.51676 -7.21643,10.63498 -20.46975,11.48313 -5.51045,0.35265 -10.68545,1.04832 -11.5,1.54593 -10.5854,15.14157 -13.11356,24.23993 -29.29262,36.27065 -6.714263,18.4503 5.86053,57.90132 31.15466,53.82517 -1.69622,-16.53032 -2.66937,-31.59683 6.97832,-44.06602 1.26497,5.13296 1.14655,10.4006 0.84479,15.64216 -11.69751,44.68928 53.49239,59.73886 34.83593,5.64746 z"
           id="path1948"
           sodipodi:nodetypes="csssssssccccscccccssccccccccccccccccccscccccccccccsscccccc" />
      </g>
      <path
         style="fill:#784421;fill-opacity:1;fill-rule:nonzero;stroke:none"
         d="m 241.19707,653.92749 c -3.73474,-3.73474 -12.13587,-9.88082 -18.66918,-13.65796 l -11.87874,-6.86751 -2.01514,-11.24443 c -1.10833,-6.18444 -2.58101,-12.16002 -3.27262,-13.27907 -0.69161,-1.11905 -5.86249,-4.63355 -11.49083,-7.80999 -15.10176,-8.52291 -16.68902,-11.83362 -15.14374,-31.58698 1.49169,-19.06837 0.83793,-21.5121 -7.06644,-26.41403 -12.20615,-7.5697 -14.30721,-10.75274 -14.30721,-21.67494 0,-8.63739 0.84573,-11.11051 5.68377,-16.62074 4.98375,-5.67617 7.92032,-6.98221 23.84294,-10.60415 9.98754,-2.27187 24.26957,-7.15093 31.73785,-10.84234 13.09685,-6.4735 13.76042,-6.60386 18.70035,-3.67352 8.83536,5.24108 15.48272,16.49 16.69701,28.25532 l 1.09539,10.61328 -12.88049,5.83814 c -7.08428,3.21098 -16.21882,6.30843 -20.299,6.88323 -5.92522,0.83471 -6.67806,1.33452 -3.74007,2.48301 8.26432,3.2306 19.34505,1.32572 38.55195,-6.62741 4.04543,-1.67512 15.76968,9.94993 20.46751,20.29434 1.95512,4.30507 3.50094,11.98789 3.52399,17.5144 0.0446,10.67938 1.31185,9.20559 -17.14236,19.93559 -8.45859,4.91815 -2.95597,6.08551 10.1781,2.15925 9.79609,-2.92842 9.81649,-2.92577 14.00461,1.82026 6.96678,7.89486 7.20057,13.0102 1.04592,22.88468 -5.44191,8.73097 -5.56773,8.80203 -14.71467,8.31095 -5.0742,-0.27242 -11.75037,0.21779 -14.83592,1.08935 l -5.61011,1.58465 5.61011,2.86831 c 3.08555,1.57756 8.97616,3.47683 13.09024,4.22059 9.55231,1.7269 11.77982,3.65997 13.25042,11.49895 2.31205,12.3243 -8.1041,19.4392 -28.45883,19.4392 -8.04326,0 -9.99508,-0.8307 -15.95481,-6.79043 z"
         id="path3863"
         transform="matrix(-0.05722286,0.99836143,-0.99836143,-0.05722286,706.95975,-109.49235)" />
      <path
         style="fill:#502d16;fill-opacity:1;fill-rule:nonzero;stroke:none"
         d="m 293.0853,466.40521 c -1.77654,-1.96306 -5.69378,-4.58969 -8.70498,-5.83697 -4.85191,-2.00973 -5.47491,-3.18215 -5.47491,-10.30312 0,-4.41944 -0.5627,-9.5017 -1.25044,-11.29392 -1.04304,-2.71812 -0.50025,-3.04945 3.27256,-1.99765 8.85091,2.46749 20.41806,3.56274 20.40389,1.93196 -0.008,-0.91119 -3.16361,-3.45844 -7.01263,-5.66056 -3.84903,-2.20212 -12.22889,-7.8594 -18.62192,-12.57174 -19.42873,-14.32101 -22.65658,-25.70453 -15.42616,-54.40282 4.43831,-17.61612 7.51916,-22.85644 15.50328,-26.37007 5.838,-2.56918 6.05726,-2.4814 13.21926,5.29221 8.77923,9.52895 17.19349,26.71377 19.79399,40.42616 1.04981,5.53565 1.92883,18.57549 1.95337,28.97743 0.0245,10.40194 0.84288,22.27868 1.81854,26.39275 2.29479,9.6764 -0.38006,18.05495 -7.74157,24.24925 -6.74875,5.6787 -7.57495,5.76089 -11.73228,1.16709 z"
         id="path3865"
         transform="matrix(-0.05722286,0.99836143,-0.99836143,-0.05722286,706.95975,-109.49235)" />
      <path
         style="fill:#784421;fill-opacity:1;fill-rule:nonzero;stroke:none"
         d="m 240.5697,652.18365 c -4.11408,-3.5881 -12.28437,-9.48709 -18.15621,-13.10888 -10.2818,-6.34188 -10.75499,-6.98617 -12.81287,-17.4462 -1.17524,-5.97362 -2.68237,-11.67703 -3.34919,-12.67424 -0.66681,-0.9972 -6.36637,-5.2861 -12.66568,-9.53088 -6.29931,-4.24478 -11.97954,-9.08916 -12.62273,-10.76529 -0.64319,-1.67613 -1.16944,-11.29161 -1.16944,-21.36775 l 0,-18.32023 -10.28519,-8.78692 c -10.08851,-8.61888 -10.28519,-8.97808 -10.28519,-18.78402 0,-15.13726 4.73147,-19.68304 27.09179,-26.0286 9.82805,-2.78906 23.85749,-7.54041 31.17655,-10.55854 15.81444,-6.52135 15.47601,-6.49487 22.16147,-1.7344 6.16072,4.38682 12.20437,16.37596 13.79944,27.37475 l 1.12428,7.75243 -11.6786,4.67374 c -6.42323,2.57056 -15.28043,5.64298 -19.68267,6.8276 -4.40225,1.18463 -7.50826,2.95611 -6.90227,3.93663 1.89546,3.06693 19.19992,1.94969 30.31603,-1.95731 5.85264,-2.05703 11.14172,-3.74006 11.7535,-3.74006 0.61178,0 3.92373,2.73492 7.35987,6.07761 8.44581,8.21609 13.07231,19.05826 13.12175,30.75073 l 0.0411,9.71284 -10.28519,6.15184 c -5.65686,3.38351 -10.28519,6.79675 -10.28519,7.58498 0,2.07215 9.10141,1.74093 17.69117,-0.64384 7.01617,-1.94789 7.63085,-1.77509 11.67842,3.28299 5.23137,6.53742 5.34403,9.96916 0.63062,19.20822 -4.28043,8.39034 -6.43654,9.46145 -19.40046,9.63775 -5.3156,0.0723 -11.34777,0.81125 -13.4048,1.64213 -3.56708,1.44081 -3.52383,1.60912 0.93501,3.63883 2.5713,1.17048 9.28565,3.58721 14.92078,5.3705 7.89138,2.49731 10.63878,4.36371 11.95636,8.12234 4.49792,12.83117 -4.66028,20.42397 -24.47953,20.29527 -9.62549,-0.0625 -11.6341,-0.78654 -18.2929,-6.59402 z"
         id="path3867"
         transform="matrix(-0.05722286,0.99836143,-0.99836143,-0.05722286,706.95975,-109.49235)" />
      <path
         style="fill:#784421;fill-opacity:1;fill-rule:nonzero;stroke:none"
         d="m 289.20256,462.50204 c -7.48817,-5.31 -9.76344,-9.61872 -10.11075,-19.14695 l -0.1864,-5.11392 11.2202,1.17274 c 7.55436,0.78958 11.22021,0.50829 11.22021,-0.86096 0,-1.11854 -7.58961,-7.23193 -16.8658,-13.58532 -9.2762,-6.35339 -18.66673,-14.08077 -20.86785,-17.17196 -10.68864,-15.01082 -2.93967,-58.42409 11.78767,-66.03989 l 6.17237,-3.19186 6.32477,7.26667 c 8.0165,9.21033 16.06692,25.13301 18.80167,37.18721 3.38213,14.90774 6.07481,68.08652 3.68303,72.73744 -2.91133,5.66118 -9.35157,12.37475 -11.69938,12.19588 -1.10636,-0.0843 -5.37225,-2.53638 -9.47974,-5.44908 z"
         id="path3869"
         transform="matrix(-0.05722286,0.99836143,-0.99836143,-0.05722286,706.95975,-109.49235)" />
      <path
         style="fill:#28170b;fill-opacity:1;fill-rule:nonzero;stroke:none"
         d="m 315.72057,535.39031 c -1.77903,-5.00898 -5.68615,-11.55878 -8.68248,-14.55511 -5.42265,-5.42265 -5.43829,-5.50391 -3.37678,-17.53892 1.76734,-10.31767 1.58704,-13.57098 -1.22934,-22.18157 -2.35254,-7.19248 -2.68379,-10.29608 -1.15336,-10.80623 3.57161,-1.19053 9.70716,-8.4008 12.32317,-14.48173 1.76338,-4.09899 1.97989,-7.82914 0.75979,-13.09024 -0.93847,-4.04676 -1.74101,-16.19365 -1.7834,-26.9931 -0.12449,-31.71165 -5.16612,-49.23488 -20.04159,-69.65879 -5.55477,-7.62665 -5.97423,-8.88266 -2.96648,-8.88266 1.92671,0 7.25439,1.89341 11.83929,4.20758 16.88858,8.52428 23.84653,32.11519 21.34566,72.37245 -2.89939,46.67235 -2.63795,49.87536 5.48388,67.18267 9.42614,20.08678 9.04176,30.25282 -1.89485,50.11424 l -7.38891,13.41862 -3.2346,-9.10721 z"
         id="path3871"
         transform="matrix(-0.05722286,0.99836143,-0.99836143,-0.05722286,706.95975,-109.49235)" />
      <path
         style="fill:#502d16;fill-opacity:1;fill-rule:nonzero;stroke:none"
         d="m 256.45456,511.78275 c -0.0211,-10.79428 -4.14887,-20.27928 -12.42873,-28.55914 -9.32334,-9.32334 -9.14537,-9.72061 6.43047,-14.35384 13.52656,-4.02365 22.61938,-2.21634 32.1996,6.40007 6.47361,5.82232 7.78776,8.27483 8.68927,16.2161 1.4456,12.73408 -2.2485,17.13167 -17.11485,20.37413 -6.17111,1.34597 -12.69286,3.08129 -14.49277,3.85628 -2.68086,1.1543 -3.27444,0.44309 -3.28299,-3.9336 l 0,0 z"
         id="path3873"
         transform="matrix(-0.05722286,0.99836143,-0.99836143,-0.05722286,706.95975,-109.49235)" />
      <path
         style="fill:#502d16;fill-opacity:1;fill-rule:nonzero;stroke:none"
         d="m 282.17763,561.93823 c -1.18713,-13.09197 -6.37828,-23.92659 -15.15674,-31.63418 l -6.49476,-5.70247 8.17995,-2.29025 c 11.34271,-3.17576 20.76865,-1.00085 28.29915,6.52965 6.93655,6.93655 7.9634,13.73 3.63951,24.07852 -2.66641,6.3816 -13.58018,19.9068 -16.06322,19.9068 -0.77913,0 -1.86087,-4.89963 -2.40389,-10.88807 z"
         id="path3875"
         transform="matrix(-0.05722286,0.99836143,-0.99836143,-0.05722286,706.95975,-109.49235)" />
      <path
         style="fill:#502d16;fill-opacity:1;fill-rule:nonzero;stroke:none"
         d="m 290.14611,613.49955 c 4.84796,-7.95124 4.7807,-18.24948 -0.16022,-24.53084 -3.38631,-4.305 -3.5047,-5.07628 -0.93083,-6.06397 3.95186,-1.51647 12.46069,0.74367 16.49834,4.38235 6.97835,6.2888 2.21733,21.24867 -9.1469,28.74096 -8.24491,5.43577 -10.54893,4.50521 -6.26039,-2.5285 z"
         id="path3877"
         transform="matrix(-0.05722286,0.99836143,-0.99836143,-0.05722286,706.95975,-109.49235)" />
      <path
         style="fill:#502d16;fill-opacity:1;fill-rule:nonzero;stroke:none"
         d="m 288.24406,645.29014 c -0.006,-2.31417 -1.18804,-6.46263 -2.626,-9.21881 -3.0148,-5.77854 -1.36449,-7.14399 8.63432,-7.14399 5.34217,0 5.62126,0.34828 4.55426,5.68326 -1.16735,5.83675 -6.65025,14.72367 -9.14853,14.82835 -0.77139,0.0323 -1.40772,-1.83464 -1.41405,-4.14881 z"
         id="path3879"
         transform="matrix(-0.05722286,0.99836143,-0.99836143,-0.05722286,706.95975,-109.49235)" />
    </g>
  </g>
  <g
     inkscape:groupmode="layer"
     id="layer5"
     inkscape:label="testo">
    <text
       xml:space="preserve"
       style="font-size:144px;font-style:normal;font-weight:normal;fill:#000000;fill-opacity:1;stroke:#000000;stroke-width:3;stroke-miterlimit:4;stroke-opacity:1;stroke-dasharray:none;font-family:ClearlyU;-inkscape-font-specification:ClearlyU"
       id="text3882"
       y="840.74329"
       x="295.00186"><tspan
         sodipodi:role="line"
         id="tspan3884"
         x="295.00186"
         y="840.74329"
         style="font-size:300px;font-style:normal;font-variant:normal;font-weight:normal;font-stretch:normal;stroke:#000000;stroke-width:3;stroke-miterlimit:4;stroke-opacity:1;stroke-dasharray:none;font-family:TSCu_Comic;-inkscape-font-specification:TSCu_Comic"
         dy="0 -26.180481 50.490913 -24.310448"
         dx="0 7.4801378 -7.4801378"><tspan
           style="font-size:300px;fill:#552200;stroke:#000000;stroke-width:3;stroke-miterlimit:4;stroke-opacity:1;stroke-dasharray:none"
           id="tspan2986"
           dy="-76.536179">e</tspan><tspan
           style="font-size:300px;fill:#aa4400;stroke:#000000;stroke-width:3;stroke-miterlimit:4;stroke-opacity:1;stroke-dasharray:none"
           id="tspan2952"
           dy="37.517731">j</tspan><tspan
           style="font-size:300px;fill:#552200;stroke:#000000;stroke-width:3;stroke-miterlimit:4;stroke-opacity:1;stroke-dasharray:none"
           id="tspan2988"
           dy="58.527668 1.5007087 -16.507801 -81.038307"
           dx="0 1.5007094">isto</tspan></tspan></text>
  </g>
</svg>
